<?xml version="1.0" encoding="utf-8"?>
<!-- Generator: Adobe Illustrator 16.0.0, SVG Export Plug-In . SVG Version: 6.00 Build 0)  -->
<!DOCTYPE svg PUBLIC "-//W3C//DTD SVG 1.1//EN" "http://www.w3.org/Graphics/SVG/1.1/DTD/svg11.dtd">
<svg version="1.1" id="Calque_1" xmlns="http://www.w3.org/2000/svg" xmlns:xlink="http://www.w3.org/1999/xlink" x="0px" y="0px"
	 width="500px" height="96px" viewBox="0 153.635 500 96" enable-background="new 0 153.635 500 96" xml:space="preserve">
<g>
	<defs>
		<rect id="SVGID_1_" y="153.635" width="498.667" height="96"/>
	</defs>
	<clipPath id="SVGID_2_">
		<use xlink:href="#SVGID_1_"  overflow="visible"/>
	</clipPath>
	<g clip-path="url(#SVGID_2_)">
		<path fill="#24554C" d="M24.588,228.469c6.573,0,12.026-1.443,16.339-4.323c4.317-2.88,6.479-7.073,6.479-12.573
			c-0.333-7.422-5.88-12.984-16.641-16.692l-5.781-2.386c-1.26-0.401-2.162-0.797-2.688-1.192c-0.531-0.359-0.797-0.854-0.797-1.495
			c0-1.656,1.094-2.479,3.287-2.479c2.724,0,4.745,1.391,6.078,4.172l14.844-4.177c-3.583-8.88-10.495-13.313-20.724-13.313
			c-6.109,0-11.193,1.589-15.245,4.771c-4.052,3.177-6.078,7.318-6.078,12.417c0,1.589,0.234,3.063,0.698,4.422
			c0.469,1.359,1.167,2.552,2.094,3.578c0.932,1.026,1.823,1.917,2.688,2.683c0.865,0.76,1.958,1.474,3.292,2.135
			c1.328,0.667,2.339,1.146,3.037,1.443s1.646,0.646,2.838,1.042L20,207.099l5.984,2.188c1.458,0.531,2.412,0.974,2.838,1.338
			c0.448,0.375,0.662,0.854,0.641,1.438c0,1.724-1.62,2.588-4.875,2.588c-4.781,0-7.641-2.12-8.567-6.359l-14.948,3.38
			c1.859,11.198,9.698,16.802,23.516,16.802V228.469z M71.307,228.469c6.573,0,11.422-2.521,14.547-7.552v6.458h20.521v-52.276
			H85.854v28.625c0,5.896-2.031,8.838-6.083,8.838c-4.115,0-6.177-2.943-6.177-8.838v-28.625H53.068v30.614
			c0,15.172,6.078,22.761,18.239,22.761V228.469z M135.958,227.375v-28.62c0-5.901,2.026-8.849,6.073-8.849
			c4.12,0,6.188,2.948,6.188,8.849v28.62h20.516v-30.604c0-15.177-6.073-22.761-18.229-22.761c-6.578,0-11.427,2.516-14.547,7.552
			v-6.463h-20.526v52.276H135.958z M197.719,227.375v-28.62c0-5.901,2.026-8.849,6.083-8.849c4.114,0,6.172,2.948,6.172,8.849v28.62
			h20.531v-30.604c0-15.177-6.078-22.761-18.24-22.761c-6.573,0-11.427,2.516-14.547,7.552v-6.463h-20.526v52.276H197.719z
			 M261.875,249.635l33.281-74.536h-21.428l-10.166,26.739l-9.068-26.739h-22.416l21.822,47.208l-12.156,27.328H261.875z
			 M316.761,228.469c6.578,0,12.025-1.443,16.344-4.323c4.317-2.88,6.479-7.073,6.479-12.573
			c-0.333-7.422-5.885-12.984-16.646-16.692l-5.781-2.386c-1.261-0.401-2.156-0.797-2.688-1.192
			c-0.531-0.359-0.797-0.854-0.797-1.495c0-1.656,1.099-2.479,3.292-2.479c2.719,0,4.75,1.391,6.078,4.172l14.844-4.177
			c-3.589-8.88-10.495-13.313-20.725-13.313c-6.109,0-11.192,1.589-15.244,4.771c-4.052,3.177-6.079,7.318-6.079,12.417
			c0,1.594,0.234,3.068,0.693,4.427c0.469,1.359,1.166,2.552,2.099,3.573c0.928,1.031,1.828,1.922,2.688,2.688
			c0.865,0.761,1.964,1.474,3.292,2.136c1.323,0.661,2.339,1.146,3.036,1.438c0.698,0.302,1.646,0.651,2.839,1.047l1.698,0.599
			l5.974,2.183c1.464,0.536,2.411,0.979,2.839,1.344c0.453,0.375,0.666,0.854,0.646,1.438c0,1.724-1.625,2.588-4.88,2.588
			c-4.776,0-7.636-2.12-8.568-6.359l-14.948,3.375c1.865,11.198,9.704,16.802,23.517,16.802V228.469z M356.109,171.922
			c3.651,0,6.474-0.859,8.469-2.583c1.989-1.724,2.989-3.911,2.989-6.563c0-2.713-0.963-4.922-2.891-6.604
			c-1.927-1.698-4.781-2.537-8.567-2.537s-6.646,0.844-8.573,2.537c-1.927,1.688-2.891,3.891-2.891,6.609
			c0,2.646,1,4.833,2.99,6.557C349.63,171.063,352.453,171.922,356.109,171.922z M366.37,227.375v-52.276h-20.531v52.276H366.37z
			 M397.448,228.469c6.974,0,11.953-2.521,14.942-7.552v6.458h20.526v-71.849h-20.526v26.136c-2.989-5.099-7.969-7.651-14.948-7.651
			c-7.041,0-12.906,2.568-17.588,7.703c-4.678,5.13-7.026,11.641-7.026,19.526c0,7.88,2.349,14.391,7.026,19.531
			c4.682,5.13,10.547,7.698,17.588,7.698H397.448z M403.026,212.87c-2.928,0-5.266-1.099-7.026-3.281
			c-1.761-2.188-2.641-4.974-2.641-8.349c0-3.38,0.864-6.162,2.589-8.349c1.797-2.188,4.15-3.276,7.072-3.276
			c2.928,0,5.266,1.088,7.026,3.276s2.641,4.969,2.641,8.349c0,3.375-0.88,6.161-2.641,8.349c-1.761,2.183-4.099,3.281-7.026,3.281
			H403.026z M470.067,228.469c10.428,0,18.568-3.016,24.412-9.042l-8.469-11.328c-4.188,3.375-8.901,5.067-14.151,5.067
			c-3.984,0-7.224-0.896-9.719-2.682c-2.484-1.792-3.729-3.516-3.729-5.172h38.558c0.333-1.193,0.5-2.75,0.5-4.667
			c0-8.219-2.708-14.708-8.12-19.479c-5.416-4.776-12.338-7.156-20.775-7.156c-9.037,0-16.172,2.683-21.422,8.052
			c-5.245,5.359-7.875,11.823-7.875,19.375c0,7.75,2.771,14.193,8.322,19.333C453.146,225.901,460.636,228.469,470.067,228.469z
			 M478.933,195.87h-20.521c0.131-2.448,1.193-4.317,3.188-5.614c1.99-1.292,4.35-1.933,7.073-1.933s5.083,0.656,7.073,1.984
			C477.739,191.63,478.802,193.49,478.933,195.87z"/>
	</g>
</g>
</svg>
